<?xml version="1.0" encoding="UTF-8"?>
<svg xmlns="http://www.w3.org/2000/svg" xmlns:xlink="http://www.w3.org/1999/xlink" width="0" height="0">
<symbol id="arrow-left" width="16" height="16" viewBox="0 0 16 16" fill="none">
<path d="M12.6666 8H3.33325" stroke="black" stroke-width="1.33333" stroke-linecap="round" stroke-linejoin="round"/>
<path d="M7.99992 12.6668L3.33325 8.00016L7.99992 3.3335" stroke="black" stroke-width="1.33333" stroke-linecap="round" stroke-linejoin="round"/>
</symbol>

<symbol id="film" width="24" height="24" viewBox="0 0 24 24" fill="none">
<path d="M19.82 2H4.18C2.97602 2 2 2.97602 2 4.18V19.82C2 21.024 2.97602 22 4.18 22H19.82C21.024 22 22 21.024 22 19.82V4.18C22 2.97602 21.024 2 19.82 2Z" stroke="white" stroke-width="2" stroke-linecap="round" stroke-linejoin="round"/>
<path d="M7 2V22" stroke="white" stroke-width="2" stroke-linecap="round" stroke-linejoin="round"/>
<path d="M17 2V22" stroke="white" stroke-width="2" stroke-linecap="round" stroke-linejoin="round"/>
<path d="M2 12H22" stroke="white" stroke-width="2" stroke-linecap="round" stroke-linejoin="round"/>
<path d="M2 7H7" stroke="white" stroke-width="2" stroke-linecap="round" stroke-linejoin="round"/>
<path d="M2 17H7" stroke="white" stroke-width="2" stroke-linecap="round" stroke-linejoin="round"/>
<path d="M17 17H22" stroke="white" stroke-width="2" stroke-linecap="round" stroke-linejoin="round"/>
<path d="M17 7H22" stroke="white" stroke-width="2" stroke-linecap="round" stroke-linejoin="round"/>
</symbol>


<symbol id="Line" width="394" height="1" viewBox="0 0 394 1" fill="none">
<line x1="-2.18557e-08" y1="0.75" x2="394" y2="0.749966" stroke="white" stroke-width="0.5"/>
</symbol>



<symbol id="search" width="12" height="12" viewBox="0 0 12 12" fill="none">
<path d="M5.5 9.5C7.70914 9.5 9.5 7.70914 9.5 5.5C9.5 3.29086 7.70914 1.5 5.5 1.5C3.29086 1.5 1.5 3.29086 1.5 5.5C1.5 7.70914 3.29086 9.5 5.5 9.5Z" stroke="white" stroke-linecap="round" stroke-linejoin="round"/>
<path d="M10.5 10.5002L8.32495 8.3252" stroke="white" stroke-linecap="round" stroke-linejoin="round"/>
</symbol> 



<symbol id="arrow-right" width="16" height="16" viewBox="0 0 16 16" fill="none">
<path d="M3.33329 8H12.6666" stroke="black" stroke-width="1.33333" stroke-linecap="round" stroke-linejoin="round"/>
<path d="M7.99996 12.6667L12.6666 8.00004L7.99996 3.33337" stroke="black" stroke-width="1.33333" stroke-linecap="round" stroke-linejoin="round"/>
</symbol>

</svg>